<?xml version="1.0" standalone="no"?>
<!DOCTYPE svg PUBLIC "-//W3C//DTD SVG 20010904//EN"
 "http://www.w3.org/TR/2001/REC-SVG-20010904/DTD/svg10.dtd">
<svg version="1.0" xmlns="http://www.w3.org/2000/svg"
 width="1024.000000pt" height="1024.000000pt" viewBox="0 0 1024.000000 1024.000000"
 preserveAspectRatio="xMidYMid meet">
<metadata>
Created by potrace 1.16, written by Peter Selinger 2001-2019
</metadata>
<g transform="translate(0.000000,1024.000000) scale(0.100000,-0.100000)"
fill="#000000" stroke="none">
<path d="M0 5120 l0 -5120 5120 0 5120 0 0 5120 0 5120 -5120 0 -5120 0 0
-5120z m6487 2861 c99 -50 153 -201 109 -305 -19 -45 -79 -111 -116 -126 l-30
-12 -1 -547 c0 -300 0 -732 1 -958 l1 -413 -103 -66 c-215 -138 -619 -403
-786 -516 l-174 -116 -58 36 c-31 21 -55 40 -53 45 4 7 271 185 683 455 113
74 235 157 273 184 l67 50 0 923 0 923 -36 7 c-33 6 -42 2 -98 -42 -34 -26
-163 -126 -286 -222 -124 -96 -255 -199 -292 -228 l-68 -54 0 -510 0 -510
-182 -119 c-202 -134 -191 -132 -230 -48 l-17 37 144 98 144 98 1 511 0 512
96 73 c53 41 140 108 193 149 53 42 171 133 262 202 91 70 172 135 181 145 14
15 14 27 6 76 -12 66 0 131 34 185 23 38 89 86 139 101 51 16 148 7 196 -18z
m-2548 -147 c12 -15 21 -35 21 -46 0 -25 -44 -68 -70 -68 -28 0 -70 43 -70 71
0 13 10 33 22 46 29 31 71 30 97 -3z m2194 -681 c81 -41 99 -181 30 -231 -31
-23 -28 45 -31 -642 l-2 -535 -392 -261 c-380 -253 -468 -308 -454 -285 4 6 3
11 -2 11 -5 0 -6 18 -1 43 18 101 0 85 372 336 l347 233 0 533 0 534 -30 21
c-101 72 -68 232 54 260 36 9 69 3 109 -17z m-4073 -3044 c4 -163 8 -210 20
-224 52 -62 215 -58 252 7 9 16 14 83 18 223 l5 200 58 3 57 3 0 -215 c0 -118
-4 -226 -9 -239 -18 -48 -70 -95 -124 -113 -63 -21 -205 -24 -260 -5 -21 7
-54 27 -73 44 -65 56 -68 70 -72 295 -2 112 -1 210 2 218 4 11 19 14 63 12
l58 -3 5 -206z m843 15 l147 -196 0 173 c0 227 -2 221 69 217 l56 -3 3 -283 2
-283 -72 3 -73 3 -150 199 -150 199 -3 -201 -2 -202 -60 0 -60 0 0 278 c0 153
3 282 7 285 3 4 36 7 72 7 l66 0 148 -196z m547 -89 l0 -285 -66 0 -65 0 1
253 c1 138 4 267 7 285 5 32 5 32 64 32 l59 0 0 -285z m598 233 l3 -48 -114 0
c-63 0 -135 -3 -161 -6 l-46 -7 0 -68 0 -69 136 0 135 0 -3 -47 -3 -48 -132
-3 -133 -3 -2 -52 c-1 -29 0 -67 1 -86 1 -19 0 -45 -4 -58 -5 -21 -11 -23 -65
-23 l-60 0 0 267 c0 235 2 269 17 285 15 17 33 18 222 16 l206 -3 3 -47z m240
-235 l2 -283 -65 0 -65 0 0 239 c0 131 3 259 6 285 l7 47 56 -3 56 -3 3 -282z
m600 235 l3 -48 -93 -2 c-51 -1 -123 -1 -160 1 l-68 3 0 -71 0 -70 133 -3 132
-3 3 -47 3 -48 -135 0 -136 0 0 -65 0 -65 160 0 160 0 0 -50 0 -50 -225 0
-225 0 0 256 c0 251 4 286 34 306 6 5 101 7 211 5 l200 -2 3 -47z m486 37
c134 -35 201 -125 201 -270 0 -135 -57 -221 -176 -266 -41 -16 -78 -19 -214
-19 l-165 0 0 285 0 285 148 0 c99 0 167 -5 206 -15z m-2103 -895 c26 -14 24
-55 -3 -75 l-23 -16 24 -20 c28 -23 41 -24 41 -4 0 8 7 15 15 15 18 0 19 -5 3
-30 -10 -16 -9 -23 7 -41 20 -22 20 -22 0 -14 -23 10 -49 10 -87 0 -40 -10
-77 2 -90 30 -10 21 -8 29 10 48 18 19 21 30 16 57 -6 26 -3 36 11 47 22 16
49 17 76 3z m358 -58 c44 -87 61 -132 50 -132 -5 0 -15 11 -21 25 -10 23 -17
25 -70 25 -53 0 -60 -2 -70 -25 -6 -14 -17 -25 -25 -25 -9 0 4 34 37 100 28
56 55 98 61 95 5 -4 22 -32 38 -63z m266 54 c18 -8 38 -23 44 -34 19 -35 13
-89 -13 -118 -20 -24 -32 -28 -90 -32 l-66 -4 0 101 0 101 45 0 c25 0 61 -6
80 -14z m753 -2 c29 -20 31 -78 2 -96 -26 -16 -25 -20 6 -57 16 -20 21 -31 12
-31 -7 0 -26 16 -41 35 -21 26 -36 35 -57 35 -26 0 -30 -3 -30 -29 0 -17 -4
-33 -10 -36 -6 -4 -10 30 -10 94 l0 101 53 0 c31 0 61 -6 75 -16z m2055 5 c45
-24 50 -67 11 -98 l-26 -20 27 -36 c15 -19 23 -35 17 -35 -6 0 -23 16 -38 35
-21 28 -33 35 -60 35 -32 0 -34 -2 -34 -35 0 -19 -4 -35 -10 -35 -6 0 -10 40
-10 100 l0 100 51 0 c28 0 60 -5 72 -11z"/>
<path d="M5140 4030 l0 -180 87 0 c153 0 213 51 214 183 1 72 -9 103 -42 134
-37 34 -73 43 -170 43 l-89 0 0 -180z"/>
<path d="M3790 3321 l0 -81 45 0 c56 0 95 33 95 78 0 48 -29 74 -88 80 l-52 5
0 -82z"/>
</g>
</svg>
